# AST/ASF file generated using VICON BodyLanguage
# -----------------------------------------------
:version 1.10
:name VICON
:units
  mass 1.0
  length 0.45
  angle deg
:documentation
   .ast/.asf automatically generated from VICON data using
   VICON BodyBuilder and BodyLanguage model FoxedUp or BRILLIANT.MOD
:root
   order TX TY TZ RX RY RZ
   axis XYZ
   position 0 0 0  
   orientation 0 0 0 
:bonedata
  begin
     id 1 
     name lhipjoint
     direction 0.671379 -0.66392 0.329334 
     length 2.38647 
     axis 0 0 0  XYZ
  end
  begin
     id 2 
     name lfemur
     direction 0.34202 -0.939693 0  
     length 6.48179  
     axis 0 0 20  XYZ
    dof rx ry rz
    limits (-160.0 20.0)
           (-70.0 70.0)
           (-60.0 70.0)
  end
  begin
     id 3 
     name ltibia
     direction 0.34202 -0.939693 0   
     length 6.86524   
     axis 0 0 20   XYZ
    dof rx
    limits (-10.0 170.0)
  end
  begin
     id 4 
     name lfoot
     direction 0.204886 -0.562919 0.800715   
     length 1.73031   
     axis -90 7.62852e-016 20   XYZ
    dof rx rz
    limits (-45.0 90.0)
           (-70.0 20.0)
  end
  begin
     id 5 
     name ltoes
     direction 1.53548e-011 -4.21841e-011 1   
     length 0.828161   
     axis -90 7.62852e-016 20   XYZ
    dof rx
    limits (-90.0 20.0)
  end
  begin
     id 6 
     name rhipjoint
     direction -0.662732 -0.670855 0.332775   
     length 2.3618  
     axis 0 0 0  XYZ 
  end
  begin
     id 7 
     name rfemur
     direction -0.34202 -0.939693 0   
     length 6.3025   
     axis 0 0 -20   XYZ
    dof rx ry rz
    limits (-160.0 20.0)
           (-70.0 70.0)
           (-70.0 60.0)
  end
  begin
     id 8 
     name rtibia
     direction -0.34202 -0.939693 0   
     length 6.8732   
     axis 0 0 -20   XYZ
    dof rx
    limits (-10.0 170.0)
 end
 begin
     id 9 
     name rfoot
     direction -0.173856 -0.477665 0.861168   
     length 1.54784  
     axis -90 -7.62852e-016 -20   XYZ
    dof rx rz
    limits (-45.0 90.0)
           (-20.0 70.0)
  end
  begin
     id 10 
     name rtoes
     direction -1.53562e-011 -4.21802e-011 1   
     length 0.759618   
     axis -90 -7.62852e-016 -20   XYZ
    dof rx
    limits (-90.0 20.0)
  end
  begin
     id 11 
     name lowerback
     direction -0.0278357 0.999497 -0.0151789   
     length 1.97203   
     axis 0 0 0   XYZ
    dof rx ry rz
    limits (-20.0 45.0)
           (-30.0 30.0)
           (-30.0 30.0)
  end
  begin
     id 12 
     name upperback
     direction -0.00360622 0.997542 0.0699804   
     length 1.94709   
     axis 0 0 0   XYZ
    dof rx ry rz
    limits (-20.0 45.0)
           (-30.0 30.0)
           (-30.0 30.0)
  end
  begin
     id 13 
     name thorax
     direction 0.00907706 0.997048 0.0762461   
     length 1.95722   
     axis 0 0 0   XYZ
    dof rx ry rz
    limits (-20.0 45.0)
           (-30.0 30.0)
           (-30.0 30.0)
  end
  begin
     id 14 
     name lowerneck
     direction -0.0481835 0.99872 -0.0153927   
     length 1.63078   
     axis 0 0 0   XYZ
    dof rx ry rz
    limits (-20.0 45.0)
           (-30.0 30.0)
           (-30.0 30.0)
  end
  begin
     id 15 
     name upperneck
     direction 0.0859716 0.979226 -0.183644   
     length 1.62591   
     axis 0 0 0   XYZ
    dof rx ry rz
    limits (-20.0 45.0)
           (-30.0 30.0)
           (-30.0 30.0)
  end
  begin
     id 16
     name head
     direction 0.0324821 0.997629 -0.0606773  
     length 1.64811  
     axis 0 0 0   XYZ
    dof rx ry rz
    limits (-20.0 45.0)
           (-30.0 30.0)
           (-30.0 30.0)
  end
  begin
     id 17 
     name lclavicle
     direction 0.939609 0.311019 0.142835  
     length 3.70647  
     axis 0 0 0   XYZ
    dof ry rz
    limits (-20.0 10.0)
           (0.0 20.0)
  end
  begin
     id 18 
     name lhumerus
     direction 1 -4.48963e-011 -1.59838e-027   
     length 4.59207   
     axis 180 -30 -90   XYZ
    dof rx ry rz
    limits (-60.0 90.0)
           (-90.0 90.0)
           (-90.0 90.0)
  end
  begin
     id 19
     name lradius
     direction 1 -4.48957e-011 -1.3483e-026   
     length 2.98109   
     axis 180 -30 -90   XYZ
    dof rx
    limits (-10.0 170.0)
  end
  begin
     id 20
     name lwrist
     direction 1 -4.48954e-011 -3.11579e-026   
     length 1.49055   
     axis 2.00652e-014 90 90   XYZ
    dof ry
    limits (-180.0 0.0)
 end
  begin
     id 21 
     name lhand
     direction 1 -4.4911e-011 -6.23158e-026   
     length 0.480203   
     axis 3.97628e-014 90 90   XYZ
    dof rx rz
    limits (-90.0 90.0)
           (-45.0 45.0)
  end
  begin
     id 22 
     name lfingers
     direction 1 -4.48893e-011 -1.24632e-025   
     length 0.387152   
     axis 7.95256e-014 90 90   XYZ
    dof rx
    limits (0.0 90.0)
  end
  begin
     id 23
     name lthumb
     direction 0.707107 -6.35013e-011 0.707107   
     length 0.555875   
     axis -90 45 2.85299e-015   XYZ
    dof rx rz
    limits (-45.0 45.0)
           (-45.0 45.0)
  end
  begin
     id 24 
     name rclavicle
     direction -0.950396 0.30392 0.0661859   
     length 3.70894  
     axis 0 0 0   XYZ 
    dof ry rz
    limits (-10.0 20.0)
           (-20.0 0.0)
  end
  begin
     id 25 
     name rhumerus
     direction -1 -4.48957e-011 -2.96677e-027  
     length 4.76508   
     axis 180 30 90   XYZ
    dof rx ry rz
    limits (-90.0 60.0)
           (-90.0 90.0)
           (-90.0 90.0)
  end
  begin
     id 26 
     name rradius
     direction -1 -4.48974e-011 -1.44501e-026   
     length 2.78902   
     axis 180 30 90   XYZ
    dof rx
    limits (-10.0 170.0)
  end
  begin
     id 27 
     name rwrist
     direction -1 -4.48978e-011 -3.11579e-026   
     length 1.39451   
     axis 2.00652e-014 -90 -90   XYZ
    dof ry
    limits (-180.0 0.0)
  end
  begin
     id 28
     name rhand
     direction -1 -4.48956e-011 -6.23158e-026   
     length 0.721303   
     axis 3.97628e-014 -90 -90   XYZ
    dof rx rz
    limits (-90.0 90.0)
           (-45.0 45.0)
  end
  begin
     id 29
     name rfingers
     direction -1 -4.4899e-011 -1.24632e-025   
     length 0.581533   
     axis 7.95256e-014 -90 -90   XYZ
    dof rx
    limits (0.0 90.0)
  end
  begin
     id 30
     name rthumb
     direction -0.707107 -6.34911e-011 0.707107   
     length 0.834968   
     axis -90 -45 -2.85299e-015   XYZ
    dof rx rz
    limits (-45.0 45.0)
           (-45.0 45.0)
  end
:hierarchy
  begin
    root lhipjoint rhipjoint lowerback
    lhipjoint lfemur
    lfemur ltibia
    ltibia lfoot
    lfoot ltoes
    rhipjoint rfemur
    rfemur rtibia
    rtibia rfoot
    rfoot rtoes
    lowerback upperback
    upperback thorax
    thorax lowerneck lclavicle rclavicle
    lowerneck upperneck
    upperneck head
    lclavicle lhumerus
    lhumerus lradius
    lradius lwrist
    lwrist lhand lthumb
    lhand lfingers
    rclavicle rhumerus
    rhumerus rradius
    rradius rwrist
    rwrist rhand rthumb
    rhand rfingers
  end

#!OML:ASF I:\salsa\salsa 7_09\Patient 1\Session 1\dancerfemale.ASF
:FULLY-SPECIFIED
:DEGREES
1
root 20.4264 15.9557 -0.932488 -20.9721 -73.7763 26.5108
lowerback -3.97922 6.91684 -13.4454
upperback -3.81036 9.504 1.43276
thorax -4.30156 5.22891 8.79346
lowerneck -1.10374 17.7878 1.82834
upperneck 10.7914 24.1149 -2.40742
head 4.3537 11.877 0.00526387
rclavicle -3.20043e-014 4.77083e-015
rhumerus -56.1564 -36.8251 -54.0221
rradius 38.6737
rwrist -9.29064
rhand 6.89998 37.9754
rfingers 7.12502
rthumb 32.1805 10.8058
lclavicle -3.20043e-014 4.77083e-015
lhumerus -41.5639 30.4013 83.3764
lradius 36.2791
lwrist -13.557
lhand -22.03 40.8101
lfingers 7.12502
lthumb 4.37976 70.7448
rfemur -8.98123 -3.97563 11.7971
rtibia 28.324
rfoot -28.6441 -20.3602
rtoes -23.4527
lfemur -12.5301 -6.84563 -27.9689
ltibia 28.9759
lfoot -22.6131 -13.6475
ltoes 17.8284
2
root 20.4202 15.9652 -0.929979 -16.9061 -74.064 22.6917
lowerback -4.1428 6.8418 -11.5756
upperback -4.0939 9.3519 1.10969
thorax -4.07948 5.07519 7.46026
lowerneck -1.22563 17.8836 2.16322
upperneck 10.753 24.1733 -1.91908
head 4.33483 11.9388 0.119582
rclavicle -5.74985e-014 1.74931e-014
rhumerus -56.6714 -37.4683 -54.4346
rradius 38.214
rwrist -8.78036
rhand 9.66191 37.8471
rfingers 7.12502
rthumb 34.8056 11.2458
lclavicle -5.74985e-014 1.74931e-014
lhumerus -41.3921 29.7487 82.7252
lradius 36.3016
lwrist -13.3748
lhand -22.144 38.928
lfingers 7.12502
lthumb 4.26976 68.8649
rfemur -8.85398 -3.82858 13.0919
rtibia 27.2849
rfoot -28.1546 -20.7378
rtoes -23.3921
lfemur -13.4651 -6.77652 -26.7063
ltibia 29.9604
lfoot -23.0417 -13.9487
ltoes 17.1889
3
root 20.415 15.9751 -0.925619 -12.7998 -74.2586 18.8638
lowerback -4.329 6.77796 -9.74654
upperback -4.38343 9.21525 0.773615
thorax -3.87184 4.93219 6.1445
lowerneck -1.31018 17.9519 2.5168
upperneck 10.6563 24.193 -1.44995
head 4.29254 11.9829 0.216214
rclavicle 9.16397e-014 2.54444e-014
rhumerus -57.2175 -38.0875 -54.8346
rradius 37.777
rwrist -8.43673
rhand 10.644 38.1195
rfingers 7.12502
rthumb 35.7369 11.7388
lclavicle 9.16397e-014 2.54444e-014
lhumerus -41.2464 29.2083 81.9941
lradius 36.2608
lwrist -13.3521
lhand -22.096 36.5158
lfingers 7.12502
lthumb 4.31603 66.4518
rfemur -8.65499 -3.74278 14.3324
rtibia 26.0448
rfoot -27.5513 -21.0719
rtoes -23.198
lfemur -14.4851 -6.76092 -25.4833
ltibia 31.0663
lfoot -23.525 -14.1745
ltoes 17.2145
4
root 20.4079 15.983 -0.921672 -8.75379 -74.3194 15.0492
lowerback -4.48698 6.67165 -7.92922
upperback -4.64014 9.01907 0.426109
thorax -3.64904 4.75906 4.83083
lowerneck -1.36012 18.0575 2.86084
upperneck 10.5122 24.2615 -0.976683
head 4.22623 12.0518 0.310444
rclavicle 3.34952e-014 9.14409e-015
rhumerus -57.71 -38.6576 -55.3203
rradius 37.4613
rwrist -8.01573
rhand 11.0326 38.511
rfingers 7.12502
rthumb 36.105 12.2204
lclavicle 3.34952e-014 9.14409e-015
lhumerus -41.11 28.7825 81.1838
lradius 36.2009
lwrist -13.2899
lhand -22.0629 34.0395
lfingers 7.12502
lthumb 4.34805 63.9749
rfemur -8.441 -3.67339 15.5288
rtibia 24.9284
rfoot -27.0486 -21.4027
rtoes -22.971
lfemur -15.3564 -6.75886 -24.3019
ltibia 31.9771
lfoot -23.8995 -14.4145
ltoes 17.3732
5
root 20.4015 15.9928 -0.922244 -0.854458 -74.16 7.45424
lowerback -4.67602 6.4772 -4.74199
upperback -5.08197 8.66237 0.0624769
thorax -3.38287 4.46102 2.77007
lowerneck -1.3585 18.2599 3.29462
upperneck 10.3041 24.4321 -0.271641
head 4.10709 12.1845 0.453924
rclavicle -3.54085e-014 -1.33186e-014
rhumerus -58.3047 -39.3186 -56.1465
rradius 37.1994
rwrist -7.32731
rhand 10.2469 38.5154
rfingers 7.12502
rthumb 35.3604 12.0443
lclavicle -3.54085e-014 -1.33186e-014
lhumerus -41.034 28.019 79.9943
lradius 36.2287
lwrist -12.8603
lhand -22.0331 28.9767
lfingers 7.12502
lthumb 4.37681 58.9114
rfemur -8.5 -3.49754 17.9105
rtibia 23.9246
rfoot -26.6403 -22.01
rtoes -22.8243
lfemur -16.5231 -6.66264 -21.9386
ltibia 32.7858
lfoot -24.0407 -14.9786
ltoes 17.3559
6
root 20.3961 15.9907 -0.915871 -0.828309 -74.263 7.3577
lowerback -4.17012 6.42937 -3.44
upperback -5.31307 8.52124 -0.796696
thorax -3.5568 4.32716 1.13266
lowerneck -1.31127 18.4204 3.74753
upperneck 10.1306 24.5539 0.408721
head 3.9982 12.2906 0.582175
rclavicle 3.24702e-014 3.13086e-015
rhumerus -58.9828 -39.9189 -56.936
rradius 36.944
rwrist -6.68486
rhand 7.25516 37.4566
rfingers 7.12502
rthumb 32.5185 10.3561
lclavicle 3.24702e-014 3.13086e-015
lhumerus -41.0588 27.2873 78.7287
lradius 36.2217
lwrist -12.5811
lhand -22.4533 27.9124
lfingers 7.12502
lthumb 3.971 57.8552
rfemur -8.06042 -3.37496 17.9232
rtibia 23.2098
rfoot -26.2638 -22.0741
rtoes -22.8588
lfemur -16.655 -6.58783 -21.9422
ltibia 33.2868
lfoot -24.3508 -14.9864
ltoes 17.0617
7
root 20.3909 15.9898 -0.909188 -0.572742 -74.3333 7.10571
lowerback -4.22221 6.41261 -3.32187
upperback -5.32433 8.49851 -0.767712
thorax -3.52489 4.31189 1.10522
lowerneck -1.37382 18.4073 3.63989
upperneck 10.2195 24.525 0.566919
head 4.00239 12.2784 0.647793
rclavicle -7.27086e-014 -5.1684e-015
rhumerus -59.1815 -39.904 -56.8673
rradius 36.7759
rwrist -6.50954
rhand 7.16567 37.8328
rfingers 7.12502
rthumb 32.4334 10.7148
lclavicle -7.27086e-014 -5.1684e-015
lhumerus -41.1247 27.3182 78.6758
lradius 36.1093
lwrist -12.7563
lhand -22.4307 27.354
lfingers 7.12502
lthumb 3.99286 57.2963
rfemur -7.79962 -3.3593 17.9844
rtibia 22.6931
rfoot -26.0361 -22.0934
rtoes -22.8602
lfemur -16.8085 -6.50458 -21.8901
ltibia 33.6393
lfoot -24.5823 -14.9964
ltoes 16.8762
8
root 20.3867 15.9885 -0.902599 -0.382258 -74.339 6.93253
lowerback -4.27683 6.38935 -3.26207
upperback -5.3417 8.46765 -0.745634
thorax -3.50547 4.2946 1.10147
lowerneck -1.45739 18.3753 3.52115
upperneck 10.3311 24.4668 0.765673
head 4.01074 12.2529 0.728098
rclavicle -6.47417e-014 -6.13748e-015
rhumerus -59.3402 -39.8751 -56.8239
rradius 36.6639
rwrist -6.42741
rhand 7.17222 37.8172
rfingers 7.12502
rthumb 32.4396 10.7004
lclavicle -6.47417e-014 -6.13748e-015
lhumerus -41.1566 27.0787 78.7684
lradius 36.0611
lwrist -12.6941
lhand -22.1833 27.4991
lfingers 7.12502
lthumb 4.23178 57.4368
rfemur -7.76711 -3.34589 18.0186
rtibia 22.6316
rfoot -26.0692 -22.1071
rtoes -22.892
lfemur -16.8348 -6.53192 -21.8608
ltibia 33.6862
lfoot -24.6362 -14.944
ltoes 17.0079
9
root 20.3822 15.9873 -0.895988 -0.279461 -74.3441 6.83211
lowerback -4.39908 6.36194 -3.31703
upperback -5.30275 8.43942 -0.658934
thorax -3.41703 4.28349 1.23636
lowerneck -1.4903 18.344 3.40529
upperneck 10.3886 24.4217 0.846866
head 4.00861 12.2297 0.767294
rclavicle 1.15059e-013 2.98798e-014
rhumerus -59.3399 -39.8499 -56.7478
rradius 36.5282
rwrist -6.3265
rhand 7.21531 37.7691
rfingers 7.12502
rthumb 32.4806 10.6607
lclavicle 1.15059e-013 2.98798e-014
lhumerus -41.1406 26.8902 78.9908
lradius 36.0294
lwrist -12.6895
lhand -22.0178 27.8364
lfingers 7.12502
lthumb 4.3916 57.7709
rfemur -7.73201 -3.29928 18.0312
rtibia 22.6083
rfoot -26.1208 -22.1384
rtoes -22.9147
lfemur -16.8271 -6.58368 -21.8522
ltibia 33.7185
lfoot -24.6892 -14.8984
ltoes 17.0044
10
root 20.3779 15.9869 -0.889336 -0.19402 -74.4196 6.74376
lowerback -4.45058 6.34483 -3.27172
upperback -5.31175 8.41666 -0.650735
thorax -3.39106 4.27032 1.22638
lowerneck -1.63394 18.3085 3.31309
upperneck 10.5801 24.3538 1.08014
head 4.05597 12.2007 0.866949
rclavicle -6.54483e-014 -4.22417e-016
rhumerus -59.4359 -39.8008 -56.7862
rradius 36.4675
rwrist -6.20885
rhand 7.28483 37.8315
rfingers 7.12502
rthumb 32.5468 10.7367
lclavicle -6.54483e-014 -4.22417e-016
lhumerus -41.2305 26.7587 78.9595
lradius 35.9885
lwrist -12.8298
lhand -21.8747 28.0488
lfingers 7.12502
lthumb 4.52976 57.9804
rfemur -7.72737 -3.20687 18.0465
rtibia 22.6282
rfoot -26.156 -22.1666
rtoes -22.9631
lfemur -16.7934 -6.52672 -21.8461
ltibia 33.7232
lfoot -24.7421 -14.8826
ltoes 16.8712
11
root 20.3739 15.9855 -0.882268 -0.351776 -74.5481 6.89945
lowerback -4.41491 6.33716 -3.17899
upperback -5.3687 8.39834 -0.741431
thorax -3.44164 4.25607 1.07699
lowerneck -1.94697 18.2423 3.29193
upperneck 10.9533 24.2257 1.44024
head 4.19185 12.1474 1.02463
rclavicle -8.86393e-014 -2.58917e-014
rhumerus -59.5971 -39.7055 -56.9759
rradius 36.4785
rwrist -6.09915
rhand 7.29317 37.9257
rfingers 7.12502
rthumb 32.5547 10.8326
lclavicle -8.86393e-014 -2.58917e-014
lhumerus -41.4132 26.6324 78.7101
lradius 35.9445
lwrist -12.9871
lhand -21.6822 28.0523
lfingers 7.12502
lthumb 4.71561 57.9798
rfemur -7.74737 -3.11772 17.9817
rtibia 22.6925
rfoot -26.1144 -22.1294
rtoes -23.01
lfemur -16.7248 -6.41276 -21.9125
ltibia 33.6902
lfoot -24.7688 -14.8862
ltoes 17.1223
12
root 20.3701 15.9841 -0.874844 -0.600178 -74.6752 7.1382
lowerback -4.41766 6.3175 -3.19266
upperback -5.39171 8.37045 -0.760318
thorax -3.46204 4.24214 1.0638
lowerneck -2.14851 18.1715 3.26091
upperneck 11.2319 24.1035 1.68913
head 4.28909 12.0939 1.13418
rclavicle 1.32484e-013 1.47598e-014
rhumerus -59.5893 -39.5602 -57.1514
rradius 36.4729
rwrist -6.03585
rhand 7.25395 37.9432
rfingers 7.12502
rthumb 32.5174 10.8424
lclavicle 1.32484e-013 1.47598e-014
lhumerus -41.5684 26.5153 78.6392
lradius 35.9423
lwrist -12.9439
lhand -21.7025 28.1613
lfingers 7.12502
lthumb 4.696 58.0893
rfemur -7.78191 -3.07212 17.8845
rtibia 22.8031
rfoot -26.0984 -22.0386
rtoes -22.8882
lfemur -16.6307 -6.35278 -21.9959
ltibia 33.6248
lfoot -24.7615 -14.862
ltoes 17.5628
13
root 20.3684 15.9821 -0.868463 -0.7768 -74.7886 7.31466
lowerback -4.43407 6.30476 -3.26402
upperback -5.41787 8.35432 -0.734146
thorax -3.49433 4.23735 1.12804
lowerneck -2.23628 18.0353 3.03719
upperneck 11.3507 23.8921 2.04792
head 4.26389 11.9979 1.26372
rclavicle -1.49054e-013 -3.26255e-014
rhumerus -59.5553 -39.4714 -57.1963
rradius 36.4636
rwrist -6.02452
rhand 7.3138 37.8757
rfingers 7.12502
rthumb 32.5743 10.7867
lclavicle -1.49054e-013 -3.26255e-014
lhumerus -41.6854 26.2472 78.7558
lradius 35.9825
lwrist -12.6558
lhand -21.8727 28.6773
lfingers 7.12502
lthumb 4.53171 58.6088
rfemur -7.84003 -3.04739 17.8163
rtibia 22.9161
rfoot -26.1079 -21.9797
rtoes -23.076
lfemur -16.559 -6.29944 -22.0541
ltibia 33.5578
lfoot -24.741 -14.8308
ltoes 17.723
14
root 20.3673 15.979 -0.862723 -0.967664 -74.8829 7.49102
lowerback -4.44561 6.28667 -3.34943
upperback -5.43733 8.3316 -0.705158
thorax -3.52447 4.22989 1.20255
lowerneck -2.40948 17.7421 2.63489
upperneck 11.4697 23.4575 2.5902
head 4.20568 11.7942 1.4623
rclavicle 4.76773e-015 -3.60297e-015
rhumerus -59.5046 -39.4037 -57.2236
rradius 36.4289
rwrist -6.0141
rhand 7.36748 37.8992
rfingers 7.12502
rthumb 32.6254 10.8207
lclavicle 4.76773e-015 -3.60297e-015
lhumerus -41.8412 26.1015 78.7844
lradius 36.0075
lwrist -12.5805
lhand -21.724 29.1967
lfingers 7.12502
lthumb 4.67532 59.1251
rfemur -7.87485 -3.01341 17.7496
rtibia 23.0101
rfoot -26.1963 -21.9152
rtoes -22.9399
lfemur -16.4754 -6.22326 -22.1161
ltibia 33.5016
lfoot -24.7061 -14.8245
ltoes 17.885
